<?xml version="1.0" encoding="utf-8"?>
<!-- Generator: Adobe Illustrator 16.0.0, SVG Export Plug-In . SVG Version: 6.00 Build 0)  -->
<!DOCTYPE svg PUBLIC "-//W3C//DTD SVG 1.1//EN" "http://www.w3.org/Graphics/SVG/1.1/DTD/svg11.dtd">
<svg version="1.1" id="Layer_1" xmlns="http://www.w3.org/2000/svg" xmlns:xlink="http://www.w3.org/1999/xlink" x="0px" y="0px"
	 width="399.998px" height="400px" viewBox="0 0 399.998 400" enable-background="new 0 0 399.998 400" xml:space="preserve">
<g>
	<g>
		<defs>
			<rect id="SVGID_1_" x="-178.654" y="-178.774" width="756.829" height="756.833"/>
		</defs>
		<clipPath id="SVGID_2_">
			<use xlink:href="#SVGID_1_"  overflow="visible"/>
		</clipPath>
		<path clip-path="url(#SVGID_2_)" fill="#FE3648" d="M199.759,10.419c-104.328,0-189.206,84.879-189.206,189.208
			c0,104.33,84.878,189.209,189.206,189.209c104.331,0,189.209-84.879,189.209-189.209C388.968,95.298,304.09,10.419,199.759,10.419
			 M199.759,366.133c-91.847,0-166.502-74.66-166.502-166.505S107.912,33.125,199.759,33.125
			c91.846,0,166.504,74.659,166.504,166.503C366.262,291.473,291.604,366.133,199.759,366.133"/>
	</g>
	<g>
		<defs>
			<rect id="SVGID_3_" x="-178.654" y="-178.774" width="756.829" height="756.833"/>
		</defs>
		<clipPath id="SVGID_4_">
			<use xlink:href="#SVGID_3_"  overflow="visible"/>
		</clipPath>
		<path clip-path="url(#SVGID_4_)" fill="#FE3648" d="M248.953,123.944c-19.97,0-38.319,11.412-49.194,26.489
			c-10.876-15.077-29.224-26.489-49.192-26.489c-32.994,0-58.655,27.554-58.655,60.547h22.705c0-20.509,15.441-37.841,35.95-37.841
			s37.841,17.332,37.841,37.841h22.705c0-20.508,17.334-37.841,37.842-37.841c20.509,0,35.948,17.333,35.948,37.841h22.706
			C307.607,151.498,281.948,123.944,248.953,123.944"/>
	</g>
	<g>
		<defs>
			<rect id="SVGID_5_" x="-178.654" y="-178.774" width="756.829" height="756.833"/>
		</defs>
		<clipPath id="SVGID_6_">
			<use xlink:href="#SVGID_5_"  overflow="visible"/>
		</clipPath>
		<path clip-path="url(#SVGID_6_)" fill="#FE3648" d="M283.72,195.845c-4.68,15.171-18.12,26.489-34.77,26.489
			c-16.648,0-31.445-11.318-36.123-26.489h-23.209c5.154,27.771,29.485,49.011,58.654,49.011c2.045,0,4.264-0.095,5.988-0.537
			l-31.729,49.914h26.418c0,0,36.996-57.709,49.35-76.93c4.117-6.408,7.187-13.693,8.63-21.458H283.72z"/>
	</g>
</g>
</svg>
