<?xml version="1.0" encoding="utf-8"?>
<!-- Generator: Adobe Illustrator 16.0.0, SVG Export Plug-In . SVG Version: 6.00 Build 0)  -->
<!DOCTYPE svg PUBLIC "-//W3C//DTD SVG 1.1//EN" "http://www.w3.org/Graphics/SVG/1.1/DTD/svg11.dtd">
<svg version="1.1" id="Layer_1" xmlns="http://www.w3.org/2000/svg" xmlns:xlink="http://www.w3.org/1999/xlink" x="0px" y="0px"
	 width="217.995px" height="40px" viewBox="0 0 217.995 40" enable-background="new 0 0 217.995 40" xml:space="preserve">
<g>
	<defs>
		<rect id="SVGID_1_" width="217.995" height="40"/>
	</defs>
	<clipPath id="SVGID_2_">
		<use xlink:href="#SVGID_1_"  overflow="visible"/>
	</clipPath>
	<path clip-path="url(#SVGID_2_)" fill="#004DCE" d="M51.596,29.999h-3.6V27.6c-1.187,1.527-3.154,2.8-5.6,2.8
		c-4.82,0-8.8-3.93-8.8-9.2c0-5.27,3.98-9.2,8.8-9.2c2.446,0,4.413,1.27,5.6,2.8v-2.4h3.6V29.999z M37.596,21.199
		c0,3.022,1.963,5.6,5.2,5.6c3.112,0,5.2-2.451,5.2-5.6c0-3.147-2.088-5.6-5.2-5.6C39.559,15.599,37.596,18.178,37.596,21.199"/>
	<path clip-path="url(#SVGID_2_)" fill="#004DCE" d="M73.596,18.799v11.2h-3.6v-9.601c0-2.896-1.6-4.8-4-4.8c-2.4,0-4.8,1.6-4.8,4.8
		v9.601h-3.6v-17.6h3.6v2.4c1.2-2,4-2.8,5.6-2.8C70.796,11.999,73.596,14.77,73.596,18.799"/>
	<path clip-path="url(#SVGID_2_)" fill="#004DCE" d="M136.396,12.424v3.588c-4.138-1.413-7.601,0.9-7.601,4.387v9.601h-3.6v-17.6
		h3.6v2.4C130.634,11.262,135.708,11.875,136.396,12.424"/>
	<rect x="140.396" y="12.399" clip-path="url(#SVGID_2_)" fill="#004DCE" width="3.6" height="17.6"/>
	<path clip-path="url(#SVGID_2_)" fill="#004DCE" d="M96.396,29.999h-3.6V27.6c-1.187,1.527-3.154,2.8-5.6,2.8
		c-4.82,0-8.8-3.93-8.8-9.2c0-5.27,3.98-9.2,8.8-9.2c2.446,0,4.413,1.27,5.6,2.8v-10h3.6V29.999z M82.396,21.199
		c0,3.022,1.963,5.6,5.2,5.6c3.112,0,5.2-2.451,5.2-5.6c0-3.147-2.088-5.6-5.2-5.6C84.359,15.599,82.396,18.178,82.396,21.199"/>
	<path clip-path="url(#SVGID_2_)" fill="#004DCE" d="M119.196,29.999h-3.6V27.6c-1.188,1.527-3.154,2.8-5.601,2.8
		c-4.82,0-8.8-3.93-8.8-9.2c0-5.27,3.98-9.2,8.8-9.2c2.446,0,4.412,1.27,5.601,2.8v-2.4h3.6V29.999z M105.196,21.199
		c0,3.022,1.962,5.6,5.2,5.6c3.112,0,5.2-2.451,5.2-5.6c0-3.147-2.088-5.6-5.2-5.6C107.158,15.599,105.196,18.178,105.196,21.199"/>
	<path clip-path="url(#SVGID_2_)" fill="#004DCE" d="M144.796,6.199c0,1.436-1.164,2.6-2.6,2.6c-1.437,0-2.601-1.164-2.601-2.6
		s1.164-2.6,2.601-2.6C143.632,3.599,144.796,4.763,144.796,6.199"/>
	<path clip-path="url(#SVGID_2_)" fill="#004DCE" d="M165.996,18.799v11.2h-3.6v-9.601c0-2.896-1.601-4.8-4-4.8
		c-2.4,0-4.801,1.6-4.801,4.8v9.601h-3.6v-17.6h3.6v2.4c1.2-2,4-2.8,5.601-2.8C163.196,11.999,165.996,14.77,165.996,18.799"/>
	<path clip-path="url(#SVGID_2_)" fill="#004DCE" d="M29.196,18.799v11.2h-4v-10c0-2.979-1.41-4.8-4-4.8c-2.499,0-4.8,1.765-4.8,4.8
		v10h-4v-10c0-2.979-1.409-4.8-4-4.8c-2.498,0-4.4,1.765-4.4,4.8v10h-4v-18h4v2.305c1.425-2.091,3.587-2.705,5.2-2.705
		c2.701,0,4.778,1.239,6,3.2c1.536-2.535,4.598-3.2,6.8-3.2C26.216,11.599,29.196,14.654,29.196,18.799"/>
	<path clip-path="url(#SVGID_2_)" fill="#FE3648" d="M197.996-0.001c-11.028,0-20,8.972-20,20c0,11.028,8.972,20,20,20
		s20-8.972,20-20C217.996,8.971,209.024-0.001,197.996-0.001 M197.996,37.599c-9.708,0-17.6-7.892-17.6-17.6
		c0-9.709,7.892-17.6,17.6-17.6s17.6,7.891,17.6,17.6C215.596,29.707,207.704,37.599,197.996,37.599"/>
	<path clip-path="url(#SVGID_2_)" fill="#FE3648" d="M203.196,11.999c-2.111,0-4.051,1.206-5.2,2.8
		c-1.149-1.594-3.089-2.8-5.199-2.8c-3.488,0-6.2,2.913-6.2,6.4h2.399c0-2.168,1.632-4,3.801-4c2.168,0,4,1.832,4,4h2.399
		c0-2.168,1.832-4,4-4c2.167,0,3.8,1.832,3.8,4h2.4C209.396,14.912,206.684,11.999,203.196,11.999"/>
	<path clip-path="url(#SVGID_2_)" fill="#FE3648" d="M206.881,19.6c-0.496,1.604-1.92,2.8-3.685,2.8s-3.333-1.196-3.828-2.8h-2.46
		c0.546,2.936,3.125,5.181,6.216,5.181c0.217,0,0.452-0.011,0.635-0.058l-3.363,5.276h2.801c0,0,3.921-6.1,5.229-8.132
		c0.438-0.677,0.762-1.448,0.915-2.268H206.881z"/>
</g>
</svg>
