<?xml version="1.0" encoding="UTF-8"?>
<svg id="_레이어_2" data-name="레이어 2" xmlns="http://www.w3.org/2000/svg" viewBox="0 0 187.97 179.28">
  <defs>
    <style>
      .cls-1 {
        fill: #000;
        fill-rule: evenodd;
        stroke-width: 0px;
      }
    </style>
  </defs>
  <g id="_레이어_1-2" data-name="레이어 1">
    <g>
      <path class="cls-1" d="M162.09,111.32c1.52-.02,3.05,0,4.57-.05,1.37-.05,1.91.57,1.85,1.83-.04.78.04,1.57-.01,2.35-.1,1.42.48,2.04,2.03,2.01,3.69-.07,7.38-.05,11.07-.06l-.05-.05c-.03,1.52-.09,3.03-.07,4.55.01,1.18-.46,1.82-1.76,1.75-.18,0-.35,0-.53,0-4.35.05-5.02.81-4.14,4.95.1.47.84,1.02,1.38,1.15.83.2,1.75.06,2.63.07.29,0,.59,0,.88,0,1.72.02,1.7,1.27,1.49,2.28-.27,1.33,1.21,3.38-1.44,3.84-.97.17-2,.09-2.99.03-1.55-.09-2.09.59-2.04,2.01.04,1.34-.08,2.69-.13,4.03-2.12.02-4.23.03-6.35.04,0-.62.03-1.23.03-1.85-.05-4.69.73-4.22-4.8-4.21-.06,0-.12,0-.18,0-1.17.01-1.65.72-1.44,1.66.34,1.49-1.13,3.43,1.16,4.45.1.04.23.03.35.03,1.64-.04,3.29-.08,4.93-.12,0,1.41-.09,2.82,0,4.22.11,1.64-.63,2.17-2.29,2.15-4.6-.07-4.23-.38-4.17,3.97.02,1.58-.51,2.22-2.23,2.2-4.66-.06-4.29-.57-4.29,4.21,0,.11.01.23,0,.34-.1,1.15.43,1.6,1.66,1.6,5.3-.04,10.61-.03,15.91,0,1.38,0,1.87-.59,1.86-1.85-.03-3.94,0-7.88-.02-11.83-.01-1.68-.12-3.37-.19-5.05,3.59.06,7.18.11,10.77.18.75.01,1.49.08,2.31.12v12.26c-1.5,0-2.95.04-4.39-.01-1.43-.06-2.01.51-2,1.89.05,4.8-.39,4.25,4.26,4.28.64,0,1.28,0,2.06,0v12.32c-1.72,0-3.48.08-5.21-.06-.4-.03-.93-.78-1.04-1.27-.18-.75-.06-1.57-.06-2.35,0-.34,0-.68-.01-1.01-.03-1.66-1.35-1.6-2.41-1.4-1.4.26-3.52-1.13-4.04,1.37-.17.82-.04,1.68-.05,2.53-.02,2.07-.18,2.24-2.29,2.25-2.83.01-5.66.06-8.49-.02-1.61-.04-2.27.54-2.17,2.08.08,1.28.02,2.57.02,3.93-.59.08-.98.17-1.37.17-5.48,0-10.96-.02-16.44.03-1.22.01-1.71-.35-1.64-1.53.08-1.52.05-3.04.07-4.56,3.58-.04,7.17-.12,10.76-.08,1.62.02,2.19-.58,2.14-2.1-.08-2.7-.11-5.4.01-8.09.08-1.67-.43-2.28-2.27-2.24-4.59.1-4.23.46-4.23-3.9,0-.22,0-.45,0-.67.02-1.75-1.35-1.71-2.48-1.51-1.38.25-3.83-1.16-3.91,1.45-.18,5.73,0,11.46.03,17.2-1.7-.05-3.4-.09-5.1-.14-1.05-.04-1.48.46-1.46,1.43.02,1.5,0,3.01,0,4.73-1.99,0-3.73.07-5.47-.05-.38-.03-.95-.73-.99-1.16-.15-1.62-.12-3.25-.15-4.88,1.7-.03,3.4-.09,5.1-.08,1.04,0,1.41-.42,1.48-1.41.32-4.84.25-4.89-4.74-4.81-1.27.02-1.81.37-1.75,1.64.07,1.56-.02,3.13-.04,4.7-3.53-.04-7.06-.08-10.59-.12-2.12-.02-2.27-.18-2.3-2.24-.08-4.52.7-3.83-4.28-4-1.84-.06-2.29.56-2.25,2.22.09,4.3.54,4.02-4.12,4.02-.76,0-1.53.05-2.29.07l.05.05c-.02-1.52-.12-3.04-.05-4.55.06-1.29-.38-1.9-1.8-1.79-.94.07-1.89-.02-2.83.02-1.37.06-1.86-.57-1.88-1.84-.02-1.38.28-3.19-.5-3.99-.68-.71-2.65-.34-4.05-.33-1.33.01-1.96-.46-1.94-1.78.06-4.95-.64-4.44,5-4.33.51.01,1.28.85,1.44,1.43.25.9.14,1.9.06,2.85-.12,1.43.55,1.92,1.98,1.82.88-.07,1.77.02,2.65-.01,1.37-.06,1.95.56,1.86,1.84,0,.11,0,.23,0,.34.13,1.26-.09,3.39.47,3.61,1.48.57,3.32.39,5,.27.37-.03.93-1.05.94-1.62.08-4.67.04-9.34.04-14.01,0-2.75.01-2.74,2.83-2.76,4.2-.04,3.64.51,3.68-3.48.03-2.72.01-2.71,2.86-2.73,1.23-.01,2.47-.1,3.7-.15,0,2.18,0,4.36.01,6.54-1.75-.05-3.5-.13-5.26-.13-.36,0-1.04.26-1.04.41-.04,1.76-.02,3.52.12,5.27.01.18.9.41,1.39.43,1.58.07,3.16.05,4.74.06-.02,1.29-.03,2.59-.05,3.88-.02,2.08-.17,2.24-2.28,2.26-.82,0-1.7-.16-2.46.06-.64.18-1.64.82-1.62,1.22.07,1.59-.83,3.35.61,4.77.13.13.45.1.68.1,3.41,0,6.83.05,10.23-.05.44-.01,1.22-.76,1.23-1.19.11-3.2.06-6.41.06-9.61,0-1.09-.64-1.48-1.69-1.46-1.59.03-3.17.05-4.76.07.01-2.04.03-4.08.04-6.13.64-.04,1.29-.12,1.93-.12,4.97-.05,4.47.64,4.49-4.54,0-1.26-.64-1.67-1.86-1.67-1.53,0-3.05-.07-4.58-.11,0-2.03-.02-4.06-.03-6.09.7.01,1.41.03,2.11.03,4.8-.04,4.32.61,4.36-4.46.01-1.97-1.44-1.83-2.68-1.66-1.37.19-3.6-1.09-3.77,1.61-.09,1.5.01,3.02.03,4.53-3.69,0-7.38-.04-11.07,0-1.43.02-1.96-.54-1.99-1.89-.1-4.31-.14-4.31-4.69-4.29-.59,0-1.17.03-1.76.04l.05.05c-.01-1.34.07-2.7-.08-4.03-.08-.73-.53-2.02-.88-2.04-1.76-.11-3.54.1-5.31.28-.12.01-.22.71-.22,1.09,0,1.57.05,3.13.08,4.7l.05-.05c-.76-.01-1.53-.04-2.29-.04-4.81-.03-4.31.53-4.37-4.33-.02-1.37.54-1.88,1.98-1.9,4.82-.08,4.8-.12,4.55-4.73-.05-.98-.38-1.45-1.45-1.42-1.12.04-2.24-.02-3.35,0-1.2.03-1.72-.51-1.71-1.63.02-1.07-.02-2.14,0-3.2.01-.91-.41-1.35-1.37-1.33-1.12.02-2.24-.04-3.35,0-1.78.06-1.95-1.12-1.7-2.26.29-1.36-1.27-3.58,1.59-3.87,1.56-.16,3.17.05,4.75.09l-.05-.04c.05.62.13,1.23.13,1.85.03,4.14.03,4.19,4.35,4.2,1.61,0,2.17.56,2.18,2.09.04,4.64-1.04,4.06,4.66,4.11,1.29.01,1.74-.54,1.79-1.74.17-4.25.2-4.29,4.6-4.42,1.38-.04,1.89-.58,1.86-1.85-.05-2.08-.01-4.17,0-6.25.01-4.85-.43-4.31,4.41-4.26,1.68.02,2.13-.67,2.11-2.14-.06-4.17-.02-8.34-.02-12.5s-.32-3.89,3.97-3.88c.35,0,.71-.02,1.06,0,1.07.07,1.47-.43,1.45-1.42-.04-1.63,0-3.27.01-4.9,1.41.04,2.83.17,4.23.1,1.7-.08,2.29.56,2.25,2.17-.09,4.39.37,4.05-4.16,4.06-2.32,0-2.33.01-2.33,2.28,0,4.15-.34,3.88,3.96,3.88,2.37,0,2.51.13,2.51,2.39,0,6.75.03,13.5-.02,20.25-.01,1.52.55,2.1,2.17,2.08,4.8-.05,4.4-.45,4.34,4.15-.02,1.59.7,2.05,2.24,2.02,2.88-.07,5.77.03,8.66-.03,1.51-.03,2.1.54,2.09,1.99-.03,4.64-.83,4.2,4.84,4.18,1.11,0,1.56-.52,1.6-1.56.05-1.39-.32-3.31.46-4,.87-.78,2.83-.52,4.32-.58,1.19-.05,1.72-.51,1.72-1.64,0-1.52.07-3.04.1-4.55l-.04.05ZM155.52,139.13c0-2.47-.04-4.95.02-7.42.03-1.36-.54-1.92-1.98-1.91-5.18.04-10.36.04-15.54,0-1.35,0-1.91.52-1.9,1.81.03,5,.03,10.01,0,15.02,0,1.22.53,1.73,1.8,1.73,5.24-.02,10.48-.02,15.71,0,1.34,0,1.93-.5,1.91-1.8-.05-2.47-.01-4.95-.01-7.42ZM116.59,123.6c1.59,0,3.18-.03,4.77,0,1.28.03,1.81-.52,1.79-1.73-.03-2.92-.04-5.85,0-8.77.02-1.26-.48-1.85-1.86-1.85-5.25.03-4.62-.37-4.59,4.1.01,1.5-.53,2.11-2.15,2.1-4.83-.03-4.38-.82-4.37,4.62,0,1.06.55,1.53,1.64,1.51,1.59-.02,3.18,0,4.77,0Z"/>
      <path class="cls-1" d="M58.42,98.75c-.02,3.49-.09,6.99-.03,10.48.03,1.54-.59,2.07-2.19,2.07-4.34,0-4.34.06-4.34,4.24,0,1.97,0,3.94,0,5.91-.01,2.01-.2,2.17-2.36,2.2-.83,0-1.65.04-2.47,0-1.24-.07-1.73.48-1.62,1.62,0,.06,0,.11,0,.17-.04,4.82.67,4.38-4.68,4.38-12.79,0-25.58,0-38.38,0-2.29,0-2.29,0-2.29-2.22,0-8.84,0-17.69,0-26.53v-2.03c2.22-.11,4.31-.21,6.4-.3.02,3.42.04,6.85.07,10.27.02,2.14.14,2.26,2.44,2.27,1.41,0,2.82-.01,4.23-.02-.05,3.65-.11,7.3-.14,10.94-.01,1.24.9,1.57,1.91,1.38,1.51-.28,3.48,1.03,4.48-1.1.07-.14.04-.33.04-.5,0-3.04-.01-6.07,0-9.1,0-1.16-.6-1.61-1.76-1.59-1.53.02-3.06.01-4.59.02-.04-3.53-.11-7.06-.11-10.59,0-1.29-.53-1.83-1.88-1.81-1.58.02-3.16-.07-4.75-.12.03-3.53.06-7.07.11-10.6.01-1.14-.57-1.63-1.73-1.6-1.06.02-2.12-.04-3.17,0-1.07.05-1.56-.25-1.58-1.4-.12-4.59-.16-4.62,4.58-4.77,1.31-.04,1.97-.47,1.92-1.79-.06-1.51-.05-3.03-.08-4.54l-.05.05c2.26-.02,4.52-.03,6.78-.05-.05,1.35-.13,2.69-.14,4.03-.01,2.14.15,2.25,2.42,2.29,3.46.05,6.92.12,10.38.19.04,3.52.07,7.03.12,10.55.02,1.13-.55,1.62-1.72,1.61-1.58-.02-3.16-.01-4.74-.02,0-.67,0-1.34-.01-2.02-.05-4.59.75-4.14-4.88-4.12-.12,0-.24,0-.35.02-2.15.64-1.03,2.34-1.18,3.56-.12.95-.48,2.26,1.2,2.53.23.04.47.03.7.03,1.52-.02,3.05-.04,4.57-.05-.02,3.58-.02,7.16-.06,10.74-.01,1.22.57,1.71,1.81,1.7,1.52,0,3.04.06,4.56.1.03,3.32.06,6.64.1,9.96.02,2.14.15,2.28,2.45,2.27,4.6-.03,3.99.54,4.04-3.86.03-2.14.18-2.3,2.43-2.3,5.01,0,10.01-.04,15.02.02,1.42.02,2.04-.39,1.97-1.83-.09-2.02.02-4.05-.03-6.08-.11-5.18,1.07-4.42-4.98-4.48-.06,0-.14-.02-.17,0-.43.4-1.13.75-1.23,1.22-.2.92-.12,1.91-.05,2.86.11,1.49-.46,2.25-2.11,2.12-.58-.05-1.18-.01-1.77,0-5.24.05-10.48.1-15.71.15.05-1.4.19-2.81.12-4.21-.08-1.59.53-2.21,2.24-2.18,4.29.08,8.59.06,12.88.02,4.96-.05,4.24.74,4.35-4.25.03-1.51-.67-1.95-2.14-1.92-2.88.06-5.77-.04-8.65.04-1.59.04-2.23-.52-2.19-2.07.08-2.86.02-5.73.01-8.6,0-.81,0-1.68-1.2-1.66-1.82.03-3.63.13-5.45.2.02-2.18.04-4.37.05-6.55,1.41.04,2.82.09,4.23.12,2.23.03,2.36.15,2.38,2.34,0,.9-.07,1.81.06,2.69.06.4.52,1.05.82,1.06,1.75.04,3.58.2,5.19-.29.47-.14.35-2.25.39-3.46.07-2.19.17-2.32,2.4-2.35,1.35-.02,2.7-.04,4.06-.07l-.05-.05c.03,1.58.11,3.15.06,4.73-.03,1.15.39,1.62,1.63,1.61,1.45,0,3.47-.34,4.21.41.82.82.55,2.7.62,4.13.06,1.15.58,1.64,1.75,1.61.88-.02,1.77.06,2.65,0,1.65-.12,2.21.61,2.14,2.11-.07,1.35.01,2.7.03,4.05l.05-.05c-1.41.02-2.83.03-4.24.07-.9.03-2.19-.25-2.25,1.01-.08,1.63.2,3.29.39,4.93.01.1.64.2.98.2,1.71,0,3.41-.05,5.12-.08l-.05-.05ZM38.99,123.61c.65,0,1.3.01,1.95,0,5.1-.1,4.41.88,4.46-4.49.01-1.11-.47-1.67-1.67-1.67-3.24.01-6.48.03-9.72-.01-1.33-.02-1.77.69-1.49,1.69.41,1.49-1.34,3.62,1.36,4.45.32.1.7.03,1.06.03,1.36,0,2.71,0,4.07,0ZM42.27,80.4q-3.33,0-3.33,2.68,0,3.48,3.14,3.48,3.32,0,3.32-2.95,0-3.22-3.13-3.22Z"/>
      <path class="cls-1" d="M129.52,30.85c1.41.03,2.83.07,4.24.09,2.17.03,2.35.17,2.36,2.2.01,4.67,0,9.35,0,14.02,0,2.15.17,2.31,2.41,2.32,2.89.01,5.77.03,8.66,0,1.37-.02,1.97.54,1.87,1.83,0,.11,0,.22,0,.34.06,4.27.57,4.71,5.1,3.94.52-.09,1.16-.86,1.28-1.41.21-.97.1-2.02.07-3.03-.03-1.13.5-1.66,1.69-1.66,3.18.02,6.36.02,9.55,0,1.16,0,1.78.46,1.74,1.61,0,.22,0,.45,0,.68.04,3.81,1.46,4.85,5.35,3.79.43-.12.83-.69,1.04-1.14.18-.38.01-.89.08-1.33.17-1.13.11-3.06.62-3.21,1.55-.47,3.34-.32,5.02-.22.32.02.8.93.82,1.44.08,3.04.02,6.08.05,9.12,0,1.12-.5,1.61-1.69,1.66-1.49.07-3.45-.21-4.33.57-.79.7-.43,2.62-.48,4.01-.04,1.16-.64,1.6-1.79,1.58-.94-.02-1.89.04-2.83,0-1.38-.06-1.95.57-1.86,1.84,0,.06,0,.11,0,.17-.03,4.55.75,4.17-4.72,4.17-1.3,0-1.77-.59-1.76-1.77.03-2.81-.06-5.63.03-8.44.05-1.63-.6-2.19-2.28-2.15-3.59.1-7.19.06-10.78.07l.05.05c0-1.57-.01-3.14.03-4.71.03-1.04-.37-1.56-1.52-1.55-3.23.03-6.46.02-9.69,0-1.17,0-1.73.47-1.72,1.61.02,3.09.03,6.17,0,9.26-.01,1.11.53,1.48,1.62,1.46,1.64-.03,3.29,0,4.93.01l-.05-.04c0,1.4.04,2.81-.04,4.21-.08,1.44.52,2.03,2.06,2,2.94-.06,5.88.03,8.81-.03,1.5-.03,2.09.49,2.1,1.96.04,4.13.09,4.17,4.49,4.24,1.42.02,2.05.5,2,1.88-.05,1.46.02,2.92.04,4.38l.05-.05c-1.41,0-2.83,0-4.24-.02-2.17-.02-2.33-.17-2.36-2.19-.07-4.47.71-3.9-4.3-4-1.61-.03-2.19.53-2.18,2.07.04,4.51.68,4.1-4.56,4.13-1.35,0-1.87-.5-1.91-1.8-.13-4.25-.16-4.3-4.47-4.36-1.56-.02-2.07-.64-2.04-2.05.06-2.81-.05-5.63.04-8.45.05-1.5-.55-1.94-2.07-1.92-4.82.05-4.46.51-4.4-4.09.02-1.54-.58-2.09-2.18-2.07-4.73.06-4.35.41-4.28-4.04.03-1.64-.64-2.18-2.3-2.13-2.94.08-5.89.05-8.84-.01-.57-.01-1.59-.37-1.62-.64-.16-1.61-.33-3.29.06-4.82.12-.46,2.03-.51,3.12-.71.4-.07.82-.03,1.24-.01,1.25.07,1.85-.46,1.84-1.69-.03-2.98-.03-5.97,0-8.95,0-1.23-.59-1.73-1.84-1.69-1.59.05-3.18.06-4.77.09l.05.05c.02-1.56.01-3.13.05-4.69.03-1.12-.51-1.65-1.68-1.64-1.05.01-2.1-.02-3.16-.01-1.08,0-1.63-.48-1.61-1.53.02-1.56.02-3.13.04-4.69l-.05.05c1.59,0,3.17-.02,4.76,0,1.18.02,1.75-.5,1.7-1.63,0-.17,0-.34,0-.5.07-4.2.74-4.7,5.19-4.03,1.2.18,1.32.93,1.32,1.83,0,2.81.06,5.62-.02,8.42-.04,1.51.52,2.19,2.15,2.09,1.46-.09,2.93-.07,4.4-.1l-.05-.05c0,4.84-.02,9.68,0,14.53.02,4.56-.59,4.12,4.55,4.16,1.34,0,1.92-.48,1.91-1.8-.04-5.63-.04-11.26-.05-16.89l-.05.05Z"/>
      <path class="cls-1" d="M6.45,74.07c-1.71.04-3.42.14-5.12.07-.44-.02-1.21-.62-1.21-.96-.08-5.74-.05-11.48-.05-17.53,1.58,0,3.03-.04,4.47.01,1.43.06,2.11-.51,1.99-1.89,0-.05,0-.11,0-.17.03-4.56-.83-4.13,4.94-4.11,1.12,0,1.6.56,1.57,1.59,0,.22,0,.45,0,.68.04,3.84,1.41,4.84,5.35,3.82.41-.11.82-.58,1.01-.98.18-.38.09-.88.09-1.33,0-4.07-.32-3.78,4.07-3.78,6.48,0,12.97,0,19.45,0,2.21,0,2.35.15,2.39,2.17.08,4.53-.76,3.91,4.24,4.03,1.68.04,2.28-.48,2.25-2.12-.09-4.79,0-9.58-.05-14.36-.02-1.53.57-2.1,2.18-2.08,4.79.08,4.39-.39,4.32,4.03-.02,1.59.53,2.28,2.25,2.18,1.41-.08,2.83.02,4.24.03l-.05-.05c.02,1.41-.01,2.81.07,4.22.09,1.47-.59,1.98-2.09,1.97-4.88-.03-4.34-.59-4.4,4.45-.01,1.21.43,1.74,1.74,1.71,2.29-.05,4.59-.02,6.89-.01,4.76.02,4.26-.45,4.34,4.2.03,1.59-.68,2.12-2.22,2.02-.94-.06-1.91-.12-2.82.05-.51.09-1.23.56-1.35.99-1.1,3.75-.03,5.07,3.97,5.11.24,0,.47.01.7,0,1.19-.04,1.72.53,1.69,1.65-.02,1.01,0,2.02.02,3.04,0,.95.47,1.48,1.51,1.47,3.82-.03,7.64-.07,11.47-.1,0,3.49.04,6.97-.04,10.46-.04,1.55.62,2.07,2.2,2.05,4.67-.04,4.29-.63,4.29,4.38,0,.06,0,.11,0,.17.04,1.15-.57,1.62-1.74,1.6-3.71-.04-7.41-.04-11.12-.06l.05.04c-.04-3.42-.14-6.85-.1-10.27.01-1.53-.57-2.09-2.18-2.07-4.29.07-8.58.03-12.87.02-4.94,0-4.44.34-4.38-4.12.02-1.67-.69-2.12-2.32-2.11-3.58.04-7.17-.05-10.75-.09l.05.05c-.02-2.04-.03-4.08-.05-6.13,3.65,0,7.3-.02,10.95.04,1.5.03,2.16-.48,2.11-1.96-.07-2.02.02-4.05-.02-6.07-.11-5.01,1.07-4.24-4.97-4.31-1.03-.01-1.53.4-1.51,1.4.02,1.07-.03,2.14-.01,3.21.01,1.05-.51,1.54-1.61,1.55-1.65.02-3.29.07-4.94.1.03-1.46-.02-2.92.09-4.38.12-1.52-.58-1.93-2.07-1.91-4.35.06-8.71.01-13.06.03-4.72.01-4.36-.46-4.29,4.02.03,1.6-.55,2.2-2.25,2.17-5-.07-10,.03-15-.05-1.72-.03-2.26.6-2.24,2.18.04,3.37-.06,6.74-.1,10.11l.05-.05Z"/>
      <path class="cls-1" d="M.16.06h11.98c10.43,0,20.86.03,31.29-.03,1.57,0,2,.42,2,1.9-.05,13.06-.03,26.13-.03,39.19,0,2.03-.17,2.19-2.35,2.19-13.67,0-27.34,0-41.02,0-1.12,0-2.01.07-2-1.53C.09,28.17.06,14.54.07.92.07.7.11.48.16.06ZM38.93,21.7c0-4.45-.05-8.9.03-13.35.03-1.64-.63-2.15-2.29-2.14-9.31.05-18.63.05-27.94,0-1.56,0-2.23.44-2.22,2.03.05,8.96.05,17.91,0,26.87,0,1.56.61,2.06,2.19,2.05,9.37-.04,18.75-.05,28.12,0,1.64,0,2.16-.61,2.13-2.11-.06-4.45-.02-8.9-.02-13.35Z"/>
      <path class="cls-1" d="M187.85.06v43.11c-.75.05-1.43.13-2.11.13-13.55,0-27.11,0-40.66,0-2.36,0-2.48-.12-2.49-2.41,0-12.95.02-25.9-.03-38.85,0-1.48.33-2.04,2.04-2.03,13.91.07,27.81.04,41.72.04h1.53ZM165.29,37.14c4.72,0,9.43-.03,14.15.02,1.39.01,2.04-.42,2.04-1.84-.04-9.07-.03-18.14,0-27.21,0-1.39-.57-1.89-2-1.89-9.49.03-18.98.03-28.47,0-1.47,0-1.96.58-1.96,1.93.03,9.01.04,18.02,0,27.04,0,1.47.58,1.99,2.09,1.97,4.72-.05,9.43-.02,14.15-.02Z"/>
      <path class="cls-1" d="M.06,179.11v-10.39c0-10.31.02-20.61-.03-30.92,0-1.38.37-1.85,1.87-1.84,13.79.05,27.58.04,41.37,0,1.62,0,2.16.58,2.15,2.09-.04,13.18-.03,26.36-.01,39.53,0,1.02-.1,1.68-1.49,1.67-14.38-.04-28.76-.03-43.14-.03-.17,0-.33-.06-.72-.12ZM6.53,157.43c0,4.51.04,9.01-.02,13.52-.02,1.48.44,2.14,2.11,2.13,9.43-.05,18.87-.04,28.3,0,1.57,0,2.04-.62,2.03-2.03-.04-8.96-.04-17.92,0-26.87,0-1.56-.63-2.05-2.2-2.05-9.31.04-18.63.02-27.95.02-2.13,0-2.27.15-2.27,2.26,0,4.34,0,8.67,0,13.01Z"/>
      <path class="cls-1" d="M64.83,148.5c0-3.55-.04-7.1.02-10.64.02-1.39-.56-1.92-1.99-1.89-3,.05-6.01-.02-9.02.03-1.44.02-2-.54-1.99-1.91.04-4.79-.35-4.28,4.27-4.28,5.01,0,10.02.06,15.03.08.05.61.14,1.22.15,1.83.07,4.7-.8,4.26,4.94,4.24.06,0,.12,0,.18,0,2.45-.58,1.1-2.47,1.34-3.77.17-.98.33-2.31-1.4-2.34-1.75-.03-3.51.06-5.26.1.03-4.2.07-8.4.1-12.6l-.05.05c1.41.02,2.83.04,4.24.05,2.27.02,2.4.14,2.41,2.31.01,4.11-.37,3.86,3.99,3.86,2.33,0,2.47.14,2.47,2.43,0,4.56,0,9.12,0,13.69,0,2.43.01,2.43,3.36,2.42,3.07,0,3.09-.02,3.1-2.5,0-.73,0-1.46.01-2.2,0-.97.51-1.45,1.53-1.45,1.06,0,2.12-.04,3.18,0,1.29.04,1.79-.54,1.79-1.74,0-1.46.09-2.92.14-4.38l-.05.05c2.14,0,4.28,0,6.41,0l-.05-.05c0,5.35,0,10.7,0,16.05,0,2.35-.11,2.44-2.63,2.45-4.83,0-9.67,0-14.5,0-2.13,0-2.29.17-2.3,2.25-.01,4.21.37,3.92-4.11,3.92-3.01,0-6.01,0-9.02,0l.05.05c.03-1.56.06-3.12.09-4.68.02-1.04-.51-1.55-1.6-1.53-1.63.03-3.27.06-4.9.08l.05.05Z"/>
      <path class="cls-1" d="M71.2,18.68c.03-3.49.11-6.98.08-10.47-.02-1.44.52-2.04,2.06-2.01,3,.06,6.01-.01,9.01.03,1.33.02,1.98-.47,1.92-1.78-.05-1.07.02-2.14,0-3.21-.02-.85.35-1.26,1.26-1.18.06,0,.12,0,.18,0,4.84-.2,4.87-.2,5.02,4.34.04,1.26.49,1.85,1.88,1.83,3.71-.06,7.42-.06,11.13-.08l-.05-.05c0,6.22.01,12.44.02,18.65l.05-.05c-.53.02-1.05.05-1.58.06q-4.7.05-4.94-4.41c0-.06,0-.11,0-.17.03-1.14-.58-1.62-1.74-1.59-1.64.05-3.27.07-4.91.11.05-1.62.2-3.25.07-4.85-.04-.5-.8-1.27-1.32-1.35-4.62-.73-5.21-.19-5.05,4.21,0,.11,0,.22,0,.34-.02,1.05.52,1.53,1.61,1.53,1.58,0,3.16.05,4.74.08.01,4.06.02,8.11.03,12.17h-6.42c0-1.46,0-2.92.03-4.38.02-1.09-.44-1.66-1.65-1.69-1.45-.04-3.45.31-4.19-.43-.82-.83-.54-2.69-.62-4.11-.06-1.12-.55-1.64-1.73-1.62-1.64.03-3.29.02-4.93.03l.05.05Z"/>
      <path class="cls-1" d="M58.41,6.12c-.01,1.63,0,3.27-.05,4.9-.03,1.01.43,1.44,1.48,1.41,1.06-.03,2.12.03,3.18,0,1.26-.04,1.88.49,1.81,1.71,0,.17,0,.34,0,.51,0,4.31-.41,3.94,4.24,3.95.7,0,1.41.05,2.12.08l-.05-.05c.05,7.75.12,15.51.07,23.26,0,.47-.93,1.28-1.51,1.34-1.62.19-3.29.07-4.93.07l.05.05c0-5.46,0-10.91,0-16.37,0-2.04-.19-2.21-2.34-2.21-4.56-.01-4.11-.29-4.12,3.88,0,2.15-.15,2.28-2.43,2.28-4.42,0-4.07.35-4.07-3.93,0-2.19.03-4.39,0-6.58-.02-1.27.5-1.91,1.88-1.82.18.01.35,0,.53,0,4.07-.04,5.08-1.31,4.02-5.24-.1-.38-.76-.82-1.21-.87-1.1-.13-2.23-.09-3.35-.05-1.37.05-1.88-.57-1.87-1.84.04-4.91-.45-4.35,4.32-4.38.76,0,1.53-.04,2.29-.06l-.05-.05Z"/>
      <path class="cls-1" d="M129.58,24.76c.01-1.58,0-3.15.04-4.73.02-.99-.41-1.45-1.47-1.42-1.12.03-2.24-.01-3.36,0-1.08,0-1.65-.46-1.64-1.53,0-.79,0-1.58,0-2.36-.02-2.13-.16-2.26-2.45-2.27-4.4,0-4.01.3-4.01-4,0-2.04.18-2.21,2.33-2.21,2.83-.01,5.66-.04,8.48.01,1.46.03,2.13-.42,2.15-1.93.06-4.28.11-4.28,4.56-4.25.52,0,1.05,0,1.93,0v3.74c0,2.25-.04,4.5.01,6.75.03,1.38-.58,1.96-2.01,1.89-.88-.05-1.77.03-2.65-.01-1.39-.07-1.88.56-1.86,1.83.07,5.25-.59,4.28,4.24,4.31,1.66.01,2.33.51,2.3,2.15-.08,4.46.31,4.05-4.15,4.06-.82,0-1.65-.04-2.47-.06l.05.05Z"/>
      <path class="cls-1" d="M168.44,86.6c.02,1.35.12,2.7.03,4.04-.11,1.66.66,2.24,2.3,2.1.7-.06,1.41-.01,2.12,0,.24,0,.48-.03.7.03,2.51.66,1.03,2.61,1.33,3.96.22.99.13,2.12-1.44,2.16-1.12.03-2.23.03-3.35.02-1.1-.01-1.63.48-1.62,1.53,0,1.07.16,2.17-.09,3.19-.14.57-.88,1.28-1.47,1.41-1.06.23-2.22.11-3.34.07-1.12-.04-1.62.41-1.58,1.49.05,1.57.04,3.15.06,4.72l.04-.05c-1.53,0-3.06-.04-4.58.02-1.39.05-2.06-.44-2.04-1.85.01-1.33.34-3.2-.41-3.84-.86-.73-2.74-.46-4.18-.47-1.37-.01-1.91-.57-1.87-1.84.04-1.51,0-3.03,0-4.54l-.05.05c1.41.04,2.82.08,4.23.11,2.11.04,2.28.2,2.3,2.25.05,3.98.05,3.9,4.26,4,1.81.04,2.3-.52,2.28-2.21-.07-5.45.03-10.9.06-16.35l-.05.05c2.14,0,4.27,0,6.41,0l-.05-.05Z"/>
      <path class="cls-1" d="M58.47,160.62c-1.59.02-3.18.03-4.77.08-1.25.04-1.84-.46-1.84-1.69.02-5.07.02-10.13,0-15.2,0-1.12.48-1.66,1.68-1.66,5.62,0,4.84-.45,4.81,4.22,0,1.45.55,2.04,2.08,2,1.47-.04,2.94.08,4.41.13l-.05-.05c0,2.04,0,4.09,0,6.13l.05-.04c-1.52,0-3.05.03-4.57-.02-1.33-.04-1.95.48-1.9,1.78.06,1.45.04,2.91.05,4.36l.05-.05Z"/>
      <path class="cls-1" d="M77.93,173.13c-2.26,0-4.52,0-6.78,0l.05.04v-12.56l-.05.04c1,0,1.99.02,2.98.02q3.68,0,3.68,3.6c0,2.96.04,5.93.07,8.89l.05-.05Z"/>
      <path class="cls-1" d="M71.19,105.18c-1.46-.02-2.91-.1-4.37-.06-1.4.04-2.05-.48-2-1.86.06-1.5,0-3.01,0-4.51l-.05.05c.41.03.82.1,1.23.09,1.63-.06,3.63.35,4.76-.41.79-.53.46-2.68.52-4.1.04-1.12.52-1.65,1.71-1.64,1.64.01,3.29,0,4.93-.02l-.05-.04c-.02.45-.06.89-.07,1.34-.08,4.66-.07,4.69-4.97,4.87-1.13.04-1.56.4-1.55,1.48.02,1.62-.09,3.24-.14,4.86l.04-.05Z"/>
      <path class="cls-1" d="M58.47,173.13c-1.58-.02-3.17-.09-4.75-.05-1.36.03-1.87-.55-1.87-1.83.04-5.01-.39-4.4,4.48-4.36,1.5.01,2.16-.39,2.06-1.9-.09-1.45.04-2.91.08-4.37l-.05.05h6.41l-.05-.05c.02.62.05,1.24.05,1.85-.02,4.92.5,4.36-4.47,4.39-.18,0-.35.01-.53,0-1.05-.06-1.5.42-1.47,1.42.05,1.63.04,3.26.05,4.89l.05-.05Z"/>
      <path class="cls-1" d="M71.14,173.13q.89,6.1-5.43,6.1c-1.99,0-3.99-.03-5.98.01-.96.02-1.41-.3-1.37-1.25.06-1.62.07-3.24.1-4.87l-.05.05h12.78l-.05-.04Z"/>
      <path class="cls-1" d="M181.53,80.57c1.76-.05,3.52-.18,5.27-.11.39.01,1.07.69,1.08,1.08.08,3.37.08,6.74,0,10.11,0,.36-.61.73-.98,1.06-.1.09-.34.03-.52.03-5.63-.03-4.89.54-4.92-4.46-.01-2.58.07-5.16.1-7.75,0,0-.04.04-.04.04Z"/>
      <path class="cls-1" d="M174.87,80.57c.03-1.52.11-3.04.08-4.55-.03-1.28.5-1.86,1.87-1.83,1.59.03,3.18-.04,4.77-.06l-.05-.05c0,2.17,0,4.33,0,6.5,0,0,.04-.04.04-.04-2.25,0-4.5,0-6.75,0,0,0,.05.04.05.04Z"/>
      <path class="cls-1" d="M71.2,111.31c0-2.05,0-4.09,0-6.13l-.04.05c1.69-.04,3.39-.13,5.08-.1,2.11.03,1.63,1.63,1.53,2.72-.12,1.23,1.02,3.19-1.52,3.39-1.68.13-3.39.03-5.08.03l.05.05Z"/>
      <path class="cls-1" d="M71.14,154.54c0,2.04,0,4.08,0,6.13l.05-.04c-2.14,0-4.28,0-6.41,0l.05.05v-6.13l-.05.04c2.14,0,4.28,0,6.41,0l-.05-.05Z"/>
      <path class="cls-1" d="M123.21,30.85c-.02-1.44,0-2.89-.07-4.33-.05-1.3.59-1.79,1.9-1.75,1.51.04,3.02,0,4.53,0,0,0-.05-.05-.05-.05,0,2.04,0,4.09,0,6.14l.05-.05h-6.41l.05.05Z"/>
      <path class="cls-1" d="M103.74,6.16c0-1.57,0-3.14-.03-4.7-.03-.95.26-1.47,1.39-1.41,1.23.07,2.46.05,3.69,0,.94-.04,1.46.27,1.39,1.23,0,.06,0,.11,0,.17-.14,5.31,1.25,4.96-6.48,4.66l.05.05Z"/>
      <path class="cls-1" d="M64.83,98.75h-6.41l.05.05c0-2.04,0-4.09,0-6.13l-.05.05c1.47,0,2.95.06,4.42,0,1.41-.05,2.09.46,2.01,1.86-.07,1.4-.05,2.81-.07,4.22l.05-.05Z"/>
      <path class="cls-1" d="M58.46,6.17c-.03-1.57-.04-3.15-.1-4.72-.04-.98.31-1.51,1.42-1.39.29.03.59-.01.88,0,1.33.09,3.56-.18,3.8.36.6,1.34.41,3.07.27,4.61-.04.43-.98,1.08-1.55,1.13-1.58.13-3.17-.01-4.76-.05l.05.05Z"/>
      <path class="cls-1" d="M181.59,74.12c-.04-1.52-.08-3.03-.12-4.55-.03-1.05.51-1.48,1.6-1.56,4.89-.37,4.82-.38,4.89,4.34.02,1.54-.53,1.98-2.03,1.86-1.46-.12-2.94-.1-4.4-.14l.05.05Z"/>
      <path class="cls-1" d="M181.59,117.4c-.04-1.52-.08-3.03-.12-4.55-.03-1.04.48-1.61,1.59-1.56,1.56.07,3.13.19,4.69.29.05,1.68.17,3.35.11,5.03-.01.29-.77.78-1.2.8-1.7.07-3.41-.02-5.12-.05l.05.05Z"/>
      <path class="cls-1" d="M77.88,173.18c1.59-.04,3.17-.07,4.76-.11,1.09-.02,1.55.48,1.64,1.53.39,4.65.41,4.57-4.37,4.68-1.75.04-2.3-.52-2.13-2.11.14-1.34.1-2.69.15-4.04l-.05.05Z"/>
      <path class="cls-1" d="M103.73,173.15c0,1.57-.04,3.14,0,4.71.02.98-.3,1.5-1.41,1.38-.41-.04-.83.03-1.23-.01-1.24-.12-3.39-.01-3.53-.46-.46-1.49-.28-3.2-.14-4.81.03-.33.93-.82,1.45-.85,1.63-.07,3.28.04,4.92.08,0,0-.05-.05-.05-.05Z"/>
      <path class="cls-1" d="M168.49,86.64c0-1.57-.12-3.16.08-4.71.07-.55.86-1.41,1.39-1.45,1.62-.14,3.27.04,4.91.09,0,0-.05-.04-.05-.04.04,1.5.09,3.01.13,4.51.03,1.05-.53,1.53-1.61,1.53-1.63,0-3.27.02-4.91.03l.05.05Z"/>
      <path class="cls-1" d="M148.99,61.91c.02,1.51.04,3.01.08,4.52.03,1.13-.56,1.62-1.72,1.6-1.58-.03-3.15-.02-4.73-.03l.05.04c-.02-1.51-.04-3.03-.08-4.54-.03-1.12.51-1.67,1.69-1.64,1.58.04,3.17.07,4.75.1l-.05-.05Z"/>
      <path class="cls-1" d="M71.2,117.34c-1.59.03-3.18.17-4.76.07-2.59-.17-1.42-2.16-1.55-3.4-.11-1.1-.59-2.7,1.54-2.73,1.59-.03,3.18.02,4.77.03l-.05-.05v6.12l.05-.05Z"/>
      <path class="cls-1" d="M84.29,30.8c0,3.49.04,6.98-.04,10.47-.04,1.56.62,2.08,2.2,2.06,4.79-.06,4.28.34,4.27-4.09,0-2.81-.08-5.63-.12-8.44,1.59.05,3.18.13,4.77.13,1.22,0,1.87.4,1.87,1.66-.02,7.15-.02,14.31,0,21.46,0,1.13-.53,1.67-1.72,1.63-.29-.01-.59,0-.88,0-4.42.06-3.86-.56-3.89,3.83-.02,2.25.02,4.51,0,6.76-.02,1.2.5,1.75,1.79,1.74,5.43-.02,4.73.4,4.7-4.18,0-1.44.53-2.03,2.07-2.01,5.01.05,4.45-.34,4.4,4.13-.02,1.54.57,2.1,2.17,2.08,4.85-.07,4.34.32,4.28-4.07-.02-1.63.63-2.17,2.3-2.14,4.62.08,4.23-.34,4.24,3.99,0,2.03.18,2.2,2.35,2.2,4.42.01,4.12-.38,4.12,3.91,0,.73.04,1.46.05,2.2-7.71.03-15.41.05-23.12.07q-2.84,0-2.85,2.73,0,3.48-3.67,3.47-2.84,0-2.84-2.74,0-3.46-3.67-3.47c-.94,0-1.88-.05-2.82-.07,0-1.46-.01-2.93.03-4.39.03-1.22-.57-1.77-1.82-1.7-.24.01-.48.03-.71,0-1.23-.18-3.3-.06-3.53-.62-.56-1.37-.33-3.06-.27-4.62.01-.31.67-.68,1.1-.87.35-.15.81-.06,1.22-.06.83,0,1.68.13,2.47-.04,2.87-.63,1.08-2.85,1.49-4.32.29-1.05-.13-1.89-1.56-1.81-1,.05-2-.03-3,0-1.37.05-1.87-.58-1.87-1.85.03-7.04.03-14.08,0-21.12,0-1.32.58-1.82,1.91-1.8,1.53.01,3.06-.08,4.59-.13ZM87.63,55.65q3.11,0,3.11-2.91,0-3.26-3.18-3.26t-3.28,3.34q0,2.83,3.35,2.83Z"/>
      <path class="cls-1" d="M149.05,98.74c-1.53.05-3.05.16-4.58.15-1.36-.01-1.97.55-1.87,1.83,0,.11,0,.22,0,.34-.07,4.21-.77,4.78-5.18,3.98-.5-.09-1.23-.82-1.24-1.28-.11-3.2-.13-6.42-.01-9.62.02-.48.86-1.32,1.34-1.33,3.35-.12,6.71-.07,10.07-.07,1.03,0,1.49.53,1.48,1.49-.02,1.52-.04,3.04-.06,4.56l.05-.05Z"/>
      <path class="cls-1" d="M110.07,37.23c.03,1.51.06,3.03.1,4.54.02,1.05-.51,1.56-1.61,1.54-.12,0-.24,0-.35,0-4.63.15-5.18-.4-4.43-4.83.09-.5.9-1.22,1.42-1.27,1.63-.13,3.28.02,4.91.06l-.05-.05Z"/>
      <path class="cls-1" d="M90.65,105.24c.03-1.58.09-3.15.08-4.72,0-1.14.54-1.63,1.72-1.62,3.18.02,6.36.02,9.54,0,1.18,0,1.72.5,1.71,1.63-.01,5.25.48,4.53-4.45,4.58-2.88.03-5.77.05-8.65.08l.05.04Z"/>
      <path class="cls-1" d="M103.71,89.51q0-2.95,3.33-2.95,3.14,0,3.14,3.31,0,2.87-3.6,2.87-2.87,0-2.87-3.22Z"/>
      <path class="cls-1" d="M145.82,135.98q3.24,0,3.24,3.03t-3.32,3.14q-3.16,0-3.16-3.29,0-2.88,3.23-2.88Z"/>
      <path class="cls-1" d="M45.37,61.91v6.13c-1.53,0-3.05-.04-4.58,0-1.22.03-1.87-.41-1.86-1.66.02-5.17-.46-4.47,4.51-4.52.65,0,1.29.04,1.94.05Z"/>
      <path class="cls-1" d="M22.65,30.94c-2.53,0-5.06-.04-7.59.01-1.4.03-2.05-.45-2.04-1.86.04-4.95.04-9.9,0-14.84,0-1.28.53-1.83,1.89-1.83,5.24.03,10.48.03,15.71,0,1.39,0,1.86.6,1.85,1.85-.03,4.95-.04,9.9,0,14.85.01,1.42-.68,1.86-2.06,1.83-2.59-.05-5.18-.01-7.77-.02Z"/>
      <path class="cls-1" d="M174.96,21.7c0,2.47-.03,4.95.01,7.42.02,1.28-.52,1.84-1.88,1.83-5.24-.03-10.48-.03-15.71,0-1.39,0-1.87-.59-1.86-1.85.03-4.95.03-9.9,0-14.85,0-1.27.5-1.84,1.87-1.83,5.24.03,10.48.03,15.71,0,1.37,0,1.89.58,1.87,1.85-.04,2.47-.01,4.95-.01,7.42Z"/>
      <path class="cls-1" d="M22.67,166.87c-2.53,0-5.06-.04-7.59.01-1.38.03-2.07-.41-2.06-1.84.04-4.95.04-9.9,0-14.85-.01-1.41.65-1.86,2.04-1.85,5.12.04,10.24.05,15.36,0,1.55-.02,2.07.59,2.06,2.01-.05,4.84-.06,9.67,0,14.51.02,1.57-.66,2.08-2.22,2.03-2.53-.07-5.06-.02-7.59-.02Z"/>
    </g>
  </g>
</svg>