<?xml version="1.0" encoding="iso-8859-1"?>
<!-- Generator: Adobe Illustrator 19.0.0, SVG Export Plug-In . SVG Version: 6.00 Build 0)  -->
<svg version="1.1" id="Capa_1" xmlns="http://www.w3.org/2000/svg" xmlns:xlink="http://www.w3.org/1999/xlink" x="0px" y="0px"
	 viewBox="0 0 512 512" style="enable-background:new 0 0 512 512;" xml:space="preserve">
<g>
	<g>
		<g>
			<path d="M480.31,324.833l6.261-6.261c3.905-3.905,3.905-10.237,0-14.143c-3.906-3.905-10.236-3.905-14.143,0l-7.442,7.442
				c-9.925-6.957-21.044-12.323-32.986-15.713V262c0-5.523-4.478-10-10-10h-2V10c0-5.523-4.478-10-10-10H10C4.477,0,0,4.477,0,10
				v340c0,5.523,4.477,10,10,10h54.682c0,0-18.448,87.847-18.468,87.945C44.936,454.025,49.813,460,56,460h42
				c4.731,0,8.814-3.315,9.787-7.945L127.118,360H180v90c0,5.523,4.477,10,10,10h40c5.523,0,10-4.477,10-10v-90h60.339
				c-5.371,12.947-8.339,27.133-8.339,42c0,60.654,49.346,110,110,110s110-49.346,110-110
				C512,371.963,499.894,344.704,480.31,324.833z M412,272v20.459c-3.295-0.298-6.629-0.459-10-0.459c-3.371,0-6.705,0.161-10,0.459
				V272H412z M89.882,440H68.318l16.8-80h21.563L89.882,440z M220,440h-20v-80h20V440z M20,339.999V20h380v232h-18
				c-5.522,0-10,4.477-10,10v34.158c-12.061,3.423-23.282,8.86-33.281,15.917l-7.647-7.647c-3.906-3.905-10.236-3.905-14.143,0
				c-3.905,3.905-3.905,10.237,0,14.143l6.514,6.514c-4.502,4.597-8.599,9.59-12.246,14.914H20z M402,492c-49.626,0-90-40.374-90-90
				c0-49.626,40.374-90,90-90c49.626,0,90,40.374,90,90C492,451.626,451.626,492,402,492z"/>
			<path d="M432.993,356.993l-38.23,38.23c-3.905,3.905-3.905,10.237,0,14.142c3.872,3.872,10.277,3.864,14.142,0l38.23-38.23
				c3.905-3.905,3.905-10.237,0-14.142C443.231,353.088,436.901,353.088,432.993,356.993z"/>
			<path d="M46,262c0,5.51,4.49,10,10,10s10-4.49,10-10s-4.49-10-10-10S46,256.49,46,262z"/>
			<path d="M346,262c0-5.51-4.49-10-10-10h-7V52c0-5.523-4.478-10-10-10h-40c-5.522,0-10,4.477-10,10v200h-20V102
				c0-5.523-4.477-10-10-10h-40c-5.523,0-10,4.477-10,10v150h-20v-80c0-5.523-4.477-10-10-10h-40c-5.523,0-10,4.477-10,10v80H96
				c-5.51,0-10,4.49-10,10s4.49,10,10,10h240C341.51,272,346,267.51,346,262z M149,252h-20v-70h20V252z M229,252h-20V112h20V252z
				 M309,252h-20V62h20V252z"/>
			<path d="M239,292H56c-5.523,0-10,4.477-10,10s4.477,10,10,10h183c5.523,0,10-4.477,10-10S244.523,292,239,292z"/>
			<path d="M55.75,62.5h68.542c5.523,0,10-4.477,10-10s-4.477-10-10-10H55.75c-5.523,0-10,4.477-10,10S50.227,62.5,55.75,62.5z"/>
			<path d="M135.75,92.5c0-5.523-4.477-10-10-10H57.208c-5.523,0-10,4.477-10,10s4.477,10,10,10h68.542
				C131.273,102.5,135.75,98.023,135.75,92.5z"/>
		</g>
	</g>
</g>
<g>
</g>
<g>
</g>
<g>
</g>
<g>
</g>
<g>
</g>
<g>
</g>
<g>
</g>
<g>
</g>
<g>
</g>
<g>
</g>
<g>
</g>
<g>
</g>
<g>
</g>
<g>
</g>
<g>
</g>
</svg>
